<svg xmlns="http://www.w3.org/2000/svg" viewBox="0 0 500 500"><g id="freepik--Clouds--inject-1"><path d="M431.18,143.73h41.24s2-6.08-5.31-10.07-10.65-.67-13.31-4,7.32-12-12.64-20.63c0,0-1.34-18.7-28.63-19.31s-20,18.7-27.28,23.38-9.35-2.67-16.65,2-4,14-10,15.3-14-6-21.3-1.32-7.33,8.65-10.66,8.65-10-2.67-14,0-8.66,6-8.66,6H422.75" style="fill:none;stroke:#263238;stroke-miterlimit:10"></path><path d="M64.09,263h94.38s-2.59-1.87-4.86-3.36-6,0-7.86,0-1.89-2.24-6-4.85-8.58,1.46-11.93.75-1.51-6-5.59-8.58-5.22,1.5-9.33-1.12,0-13.43-15.29-13.09-16,10.82-16,10.82c-11.19,4.84-5.59,9.7-7.09,11.56s-3.36,0-7.45,2.23S64.09,263,64.09,263Z" style="fill:none;stroke:#263238;stroke-miterlimit:10"></path></g><g id="freepik--Wind--inject-1"><path d="M377.84,197.07A88.45,88.45,0,0,1,402.22,200c11.17,2.94,21.88,7.81,33.32,9.37s24.44-1,31.46-10.14" style="fill:none;stroke:#263238;stroke-linecap:round;stroke-linejoin:round"></path><path d="M334.64,212.31c9.86-8.38,22.16-13.08,35-14.66" style="fill:none;stroke:#263238;stroke-linecap:round;stroke-linejoin:round"></path><path d="M447.41,224c7.69-1,14.95-4.16,19.59-10.22" style="fill:none;stroke:#263238;stroke-linecap:round;stroke-linejoin:round"></path><path d="M334.64,226.86c18.14-15.42,44.56-18.39,67.58-12.32,11.17,2.94,21.88,7.81,33.32,9.37a46.26,46.26,0,0,0,6.47.43" style="fill:none;stroke:#263238;stroke-linecap:round;stroke-linejoin:round"></path><path d="M420.47,234.83a90.88,90.88,0,0,0,15.07,3.63C447,240,460,237.49,467,228.32" style="fill:none;stroke:#263238;stroke-linecap:round;stroke-linejoin:round"></path><path d="M386.5,226.42a89.2,89.2,0,0,1,15.72,2.67c5.13,1.35,10.16,3.11,15.2,4.76" style="fill:none;stroke:#263238;stroke-linecap:round;stroke-linejoin:round"></path><path d="M334.64,241.41c11.18-9.5,25.5-14.28,40.23-15.12" style="fill:none;stroke:#263238;stroke-linecap:round;stroke-linejoin:round"></path></g></svg>