<svg xmlns="http://www.w3.org/2000/svg" viewBox="0 0 500 500"><g id="freepik--background-simple--inject-41"><path d="M272.73,156.84c-33.26-81.17-135-126.69-188.39-20.55C63,178.73,75.57,222.77,107.7,253.51c30.15,28.83,69.44,22.07,104.18,40.91,36.35,19.71,42.34,69.88,84,79.6,39.88,9.3,84.87-26.83,107.5-57.12,28.38-38,33.43-85.23-16.67-100.79C338.12,201,296.29,214.34,272.73,156.84Z" style="fill:#407BFF"></path><path d="M272.73,156.84c-33.26-81.17-135-126.69-188.39-20.55C63,178.73,75.57,222.77,107.7,253.51c30.15,28.83,69.44,22.07,104.18,40.91,36.35,19.71,42.34,69.88,84,79.6,39.88,9.3,84.87-26.83,107.5-57.12,28.38-38,33.43-85.23-16.67-100.79C338.12,201,296.29,214.34,272.73,156.84Z" style="fill:#fff;opacity:0.9"></path></g><g id="freepik--Shadow--inject-41"><ellipse id="freepik--path--inject-41" cx="250" cy="430.59" rx="103.13" ry="6.02" style="fill:#f5f5f5"></ellipse></g><g id="freepik--Clouds--inject-41"><path d="M170,177.42a5,5,0,0,0-7.41-.9,6,6,0,0,0-1.35,1.67,6,6,0,0,0-6.76.82,7.38,7.38,0,0,0-1.91,8.48,6.36,6.36,0,0,0-.76,8.15l.26.33h0a3,3,0,0,0-.48,3.9,2.42,2.42,0,0,0,3.59.45l18.33-15.55a4.52,4.52,0,0,0,.73-6A3.7,3.7,0,0,0,170,177.42Z" style="fill:#407BFF"></path><path d="M170,177.42a5,5,0,0,0-7.41-.9,6,6,0,0,0-1.35,1.67,6,6,0,0,0-6.76.82,7.38,7.38,0,0,0-1.91,8.48,6.36,6.36,0,0,0-.76,8.15l.26.33h0a3,3,0,0,0-.48,3.9,2.42,2.42,0,0,0,3.59.45l18.33-15.55a4.52,4.52,0,0,0,.73-6A3.7,3.7,0,0,0,170,177.42Z" style="fill:#fff;opacity:0.8"></path><path d="M117.34,337a6.56,6.56,0,0,0-3.32,9.2,7.5,7.5,0,0,0,1.74,2.2,7.89,7.89,0,0,0-.94,8.87,9.7,9.7,0,0,0,10.26,4.93,8.33,8.33,0,0,0,10.17,3.34l.49-.23,0,0a3.86,3.86,0,0,0,4.83,1.75,3.17,3.17,0,0,0,1.62-4.45l-14.45-27.93a5.9,5.9,0,0,0-7.39-2.67A4.83,4.83,0,0,0,117.34,337Z" style="fill:#407BFF"></path><path d="M117.34,337a6.56,6.56,0,0,0-3.32,9.2,7.5,7.5,0,0,0,1.74,2.2,7.89,7.89,0,0,0-.94,8.87,9.7,9.7,0,0,0,10.26,4.93,8.33,8.33,0,0,0,10.17,3.34l.49-.23,0,0a3.86,3.86,0,0,0,4.83,1.75,3.17,3.17,0,0,0,1.62-4.45l-14.45-27.93a5.9,5.9,0,0,0-7.39-2.67A4.83,4.83,0,0,0,117.34,337Z" style="fill:#fff;opacity:0.8"></path><path d="M386.25,241.46a2,2,0,0,0,.26-.09,4.45,4.45,0,0,0,2.11-6.32,6.12,6.12,0,0,0-.54-.79,10.67,10.67,0,0,0,1.93-13.1,12.61,12.61,0,0,0-5.1-5,11.16,11.16,0,0,0-.24-10.66,13.38,13.38,0,0,0-8.83-6.48,4.52,4.52,0,0,0-.47-3.15,5.43,5.43,0,0,0-6.87-2.27,4.57,4.57,0,0,0-2.09,1.85,11.71,11.71,0,0,0-10.81-.77,9.61,9.61,0,0,0-4.55,13.63l20.77,37.46a8.29,8.29,0,0,0,10.49,3.46A6.79,6.79,0,0,0,386.25,241.46Z" style="fill:#407BFF"></path><path d="M386.25,241.46a2,2,0,0,0,.26-.09,4.45,4.45,0,0,0,2.11-6.32,6.12,6.12,0,0,0-.54-.79,10.67,10.67,0,0,0,1.93-13.1,12.61,12.61,0,0,0-5.1-5,11.16,11.16,0,0,0-.24-10.66,13.38,13.38,0,0,0-8.83-6.48,4.52,4.52,0,0,0-.47-3.15,5.43,5.43,0,0,0-6.87-2.27,4.57,4.57,0,0,0-2.09,1.85,11.71,11.71,0,0,0-10.81-.77,9.61,9.61,0,0,0-4.55,13.63l20.77,37.46a8.29,8.29,0,0,0,10.49,3.46A6.79,6.79,0,0,0,386.25,241.46Z" style="fill:#fff;opacity:0.8"></path></g><g id="freepik--World--inject-41"><path d="M139.51,311.13a113.1,113.1,0,0,1-2.16-22h.94A112.11,112.11,0,0,0,140.44,311Z" style="fill:#407BFF"></path><path d="M355.08,253.63a110.82,110.82,0,0,0-4.79-11.88l.86-.41a112.85,112.85,0,0,1,4.83,12Z" style="fill:#407BFF"></path><path d="M348.28,237.72a111.55,111.55,0,0,0-11.23-17.35l.74-.58a112.2,112.2,0,0,1,11.33,17.49Z" style="fill:#407BFF"></path><path d="M138.46,283l-1-.06c.15-2.58.38-5.17.69-7.71l.94.12C138.83,277.89,138.6,280.47,138.46,283Z" style="fill:#407BFF"></path><circle cx="249.59" cy="289.13" r="108.93" style="fill:#407BFF"></circle><g style="opacity:0.30000000000000004"><path d="M162.11,238.42q-1.11-5.94-2-11.47a108.69,108.69,0,0,0-11.49,21.13C155.34,244.78,162.1,238.4,162.11,238.42Z" style="fill:#fff"></path><path d="M182.39,362.44c2.57-3.5,4.4-6.87,3.26-10.37s-14.29-7.36-14.22-7.37q-4.6-2.88-9.1-5.84a10.41,10.41,0,0,0-3-7.23,9.59,9.59,0,0,0-7.42-2.38q-3.54-4.77-6.9-9.61a108.94,108.94,0,0,0,36.75,54.71C182.3,373,184.42,367.26,182.39,362.44Z" style="fill:#fff"></path><path d="M178.51,211.72l3.77,1.81c2.54-4.53,5.12-8.8,7.73-12.74,7.65-3.48,15.33-6.68,22.86-9.55.94-2,1.89-3.92,2.83-5.65a108.61,108.61,0,0,0-37.32,21.12C178.41,208.34,178.44,210,178.51,211.72Z" style="fill:#fff"></path><path d="M214.86,206.31c4.12.37,6.93-5.13,6.92-5.07q-.9-1.8-1.77-3.51-5.76,1.71-11.56,3.55C208.43,201.23,210.73,205.85,214.86,206.31Z" style="fill:#fff"></path><path d="M238.84,233q-2.7-5.21-5.28-10.12c-.76-2-1.5-3.92-2.24-5.82-1,1.57-2.1,3.17-3.15,4.79l3.69,5.56q-1.12,4.94-2.26,10.13Q234.24,235.19,238.84,233Z" style="fill:#fff"></path><path d="M223.09,228.22c-.4,2.29-.81,4.63-1.2,7l5.21-2.44c.8-1.62,1.59-3.23,2.39-4.81l-3.05-2.09Z" style="fill:#fff"></path><path d="M300.19,192.65l-4.2.56c-3.08,2.07-6.33,4.34-9.75,6.78q-.25,2-.54,4.14l-3.61.22q-3.64-3.9-7.18-7.41l5.93.85,3.1.11c.15-.85.3-1.68.45-2.5-6.31-2.8-12.52-5.36-18.53-7.65-3.07,1.37-6.25,2.85-9.51,4.43-2.23,4-4.63,8.57-7.13,13.58q-2.64,1.55-5.31,3.15c0,2.81.08,5.75.13,8.79q5.72,2.73,11.56,5.62,2.13-2.16,4.22-4.24-.42-5.16-.84-9.89c1.57-3.33,3.08-6.49,4.52-9.44l4.47-.07q-1.89,3.19-3.9,6.71.48,3.33,1,6.92l3.13,1.78c0,.49-.07,1-.11,1.49l-1.46,1.94,1.75,3c-.26.7-.53,1.4-.79,2.11.12,1.09.24,2.19.37,3.3q-5.66.5-11.35,1c-2.13-2.11-4.24-4.19-6.33-6.21l-2.08.46q.24,3.47.51,7.08l-5.57,2.29q-2.88,2.87-5.79,5.82-3.44,1.89-6.87,3.83L235,246.6q-.12,3-.22,6.11c-3.61.17-7.21.36-10.79.55q-.57,4.58-1.11,9.24c.29,2.19.58,4.4.87,6.61l5.69,2.42,7.67-5.87q2.43-5.84,4.84-11.56l3.13-1.59,5.43.47q4.56,3.79,9.15,7.67c.23,1.5.47,3,.71,4.52l1.9-.64c.31-1.67.62-3.33.92-5q-3.44-3.93-6.85-7.81l2-.7c2.4,1.66,4.82,3.33,7.23,5q1.41,5,2.82,10.13c1.42,1.51,2.83,3,4.25,4.55l2.81-3.71q-1.92-2.52-3.85-5l4.56-2.53q.52,3.19,1,6.43,3,3.57,6,7.15l8.06,3,0,3.9-4,1.13-7.68,0-9.25-3.28-2.46.81c0,1.26,0,2.52,0,3.77-5.2-4.53-10.43-9.08-15.65-13.58-7.31,1.57-14.64,3.15-21.92,4.75L227,275c-1.74,1.74-3.47,3.49-5.19,5.23-.28,1.53-.55,3.05-.82,4.58q-5.84,7.61-11.47,15.09c.09,6,.23,12,.42,17.82,4.84,5.54,9.72,11,14.55,16.26q8.65-1.44,17.47-3,5.65,2.52,11.22,4.95-.81,3.77-1.62,7.4c1.75,2.42,3.46,4.78,5.16,7.08q1.45,6,2.81,11.5-2.29,3.53-4.52,6.76c1.14,2.7,2.24,5.25,3.29,7.62,1.66,5,3.16,9.23,4.45,12.48q5-.4,10-.88c3-2,6-4.24,9.13-6.78.85-.9,1.71-1.83,2.57-2.79l2.6-.48c0-1.75.05-3.6,0-5.55,3-1.9,6-3.9,9.06-6,.34-5.38.54-11.33.62-17.72,5-4.82,10-9.86,15-15,1.88-4.18,3.73-8.47,5.53-12.82q-5.26,1.23-10.67,2.45C301.2,312.63,295.23,301.4,289,290l2.94-2.12,2.53-.33c3.95,7.35,7.78,14.63,11.39,21.71q.57,4.32,1.06,8.55,7-3.48,13.89-7,4.58-5.62,9-11.25c-1.7-2.21-3.44-4.45-5.22-6.7l-5.46,0q-4.63-4.33-9.47-8.76l4.72-2.24Q319,286,323.57,290l16.85,2.23q2.82,4.31,5.46,8.53l2.81-.83q.71,4.55,1.31,9,1.78,7.11,3.21,13.86a109,109,0,0,0-53-130.15Z" style="fill:#fff"></path><path d="M309.46,366.08c.33-1.61.65-3.28,1-5-2.87,2.31-5.75,4.55-8.61,6.69-1.07,3-2.17,5.88-3.28,8.5l.65,1.82,3.18-.2C304.74,374.36,307.12,370.39,309.46,366.08Z" style="fill:#fff"></path></g><path d="M147.33,249a.23.23,0,0,1-.21-.13.24.24,0,0,1,.1-.32,63,63,0,0,0,13.17-9.43l.12-.11c-.71-3.81-1.36-7.63-1.93-11.34a.24.24,0,0,1,.47-.08c.57,3.76,1.23,7.62,1.95,11.47a.23.23,0,0,1-.09.23l-.21.19a63.47,63.47,0,0,1-13.27,9.5A.18.18,0,0,1,147.33,249Z" style="fill:#fff"></path><path d="M180.4,375.26a.11.11,0,0,1-.08,0,.23.23,0,0,1-.14-.3c.82-2.05,2.53-7.29.65-11.74a.24.24,0,0,1,0-.23c2.35-3.2,4.37-6.64,3.23-10.15-.66-1.94-5.68-4.54-13.77-7.12a2.78,2.78,0,0,1-.35-.13h0c-3.06-1.91-6.12-3.88-9.1-5.85h0a.28.28,0,0,1-.11-.22,10.1,10.1,0,0,0-2.94-7,9.31,9.31,0,0,0-7.21-2.32.24.24,0,0,1-.23-.09h0c-2.31-3.11-4.64-6.34-6.91-9.62a.24.24,0,0,1,.06-.33.25.25,0,0,1,.33.06c2.24,3.24,4.54,6.43,6.82,9.5a9.75,9.75,0,0,1,7.47,2.46,10.59,10.59,0,0,1,3.08,7.27c2.94,1.93,6,3.87,9,5.76l.26.09c4.84,1.54,13.11,4.56,14.08,7.42,1.2,3.67-.82,7.2-3.22,10.47,1.87,4.58.15,9.89-.69,12A.23.23,0,0,1,180.4,375.26Z" style="fill:#fff"></path><path d="M180.93,214.44a.19.19,0,0,1-.1,0l-3.76-1.8a.26.26,0,0,1-.14-.2c-.06-1.51-.1-3.11-.13-5a.23.23,0,0,1,.23-.24h0a.23.23,0,0,1,.23.23c0,1.86.07,3.41.13,4.87l3.44,1.65c2.54-4.52,5.11-8.75,7.63-12.56a.22.22,0,0,1,.1-.09c7.58-3.44,15.24-6.64,22.79-9.52.92-2,1.86-3.87,2.79-5.57a.24.24,0,1,1,.41.23c-.93,1.71-1.88,3.61-2.81,5.63a.3.3,0,0,1-.13.12c-7.55,2.88-15.21,6.08-22.79,9.52-2.54,3.84-5.13,8.1-7.69,12.67A.24.24,0,0,1,180.93,214.44Z" style="fill:#fff"></path><path d="M213.91,207.24l-.42,0h0c-4-.46-6.34-4.68-6.59-5.16h0a0,0,0,0,1,0,0,.23.23,0,0,1,.11-.3l.05,0c3.83-1.22,7.71-2.41,11.55-3.54a.24.24,0,0,1,.28.12c.57,1.13,1.17,2.3,1.77,3.5a.25.25,0,0,1,0,.25l0,0C219.9,203.34,217.38,207.24,213.91,207.24Zm-.37-.49c3.37.29,5.9-3.59,6.63-4.85q-.82-1.65-1.62-3.21c-3.69,1.09-7.42,2.23-11.1,3.4C208,203.08,210.13,206.36,213.54,206.75Z" style="fill:#fff"></path><path d="M228.26,238.4a.2.2,0,0,1-.15-.05.22.22,0,0,1-.08-.23c.72-3.32,1.47-6.7,2.24-10-1.24-1.85-2.45-3.68-3.64-5.47a.23.23,0,0,1,0-.26c1.06-1.62,2.12-3.22,3.16-4.79a.22.22,0,0,1,.23-.1.24.24,0,0,1,.19.15l2.24,5.82c1.71,3.24,3.47,6.62,5.27,10.09a.23.23,0,0,1,0,.18.28.28,0,0,1-.12.14c-3.05,1.48-6.16,3-9.25,4.54A.18.18,0,0,1,228.26,238.4Zm-1.15-15.92,3.61,5.43a.28.28,0,0,1,0,.18c-.74,3.21-1.46,6.45-2.16,9.65,2.88-1.43,5.76-2.84,8.59-4.22-1.76-3.39-3.49-6.7-5.17-9.9q-1.06-2.77-2.09-5.41Q228.53,220.31,227.11,222.48Z" style="fill:#fff"></path><path d="M220.54,236.13a.24.24,0,0,1-.14,0,.23.23,0,0,1-.09-.23c.4-2.37.8-4.71,1.21-7a.24.24,0,0,1,.09-.16l3.35-2.33a.26.26,0,0,1,.27,0l3,2,.09.06a.23.23,0,0,1,.08.3c-.8,1.58-1.59,3.19-2.39,4.81a.25.25,0,0,1-.12.11l-5.21,2.44ZM222,229c-.38,2.12-.75,4.28-1.12,6.46l4.73-2.2q1.14-2.31,2.26-4.56l-2.74-1.88Z" style="fill:#fff"></path><path d="M261.4,389.65a.25.25,0,0,1-.22-.15c-1.26-3.18-2.76-7.38-4.45-12.49-1.05-2.37-2.16-4.93-3.28-7.61a.24.24,0,0,1,0-.22c1.47-2.15,3-4.39,4.47-6.67-.89-3.58-1.82-7.38-2.78-11.35-1.69-2.3-3.42-4.67-5.13-7.05a.21.21,0,0,1,0-.19c.52-2.35,1-4.76,1.58-7.21-3.61-1.57-7.3-3.2-11-4.84-5.91,1-11.77,2-17.4,3a.21.21,0,0,1-.21-.07c-4.82-5.25-9.71-10.72-14.56-16.26a.47.47,0,0,1-.06-.15c-.19-5.79-.33-11.79-.42-17.83a.24.24,0,0,1,.05-.14c3.74-5,7.59-10,11.43-15.05l.81-4.52a.29.29,0,0,1,.07-.12c1.72-1.75,3.45-3.49,5.19-5.24a.18.18,0,0,1,.07,0l3.42-1.48c7.35-1.61,14.73-3.21,22-4.76a.23.23,0,0,1,.21.05c5,4.33,10.14,8.79,15.25,13.24,0-1.08,0-2.16,0-3.24a.24.24,0,0,1,.16-.23l2.46-.81a.2.2,0,0,1,.15,0l9.22,3.27H286l3.8-1.07c0-1.19,0-2.37,0-3.55l-7.91-2.9-.1-.07q-3-3.58-6-7.16a.24.24,0,0,1-.06-.11c-.32-2-.65-4.08-1-6.1l-4,2.23,3.68,4.81a.24.24,0,0,1,0,.28l-2.81,3.72a.24.24,0,0,1-.18.09.21.21,0,0,1-.18-.07q-2.13-2.3-4.26-4.56a.31.31,0,0,1-.05-.1c-.93-3.37-1.87-6.73-2.8-10q-3.54-2.48-7.06-4.9l-1.58.55q3.3,3.74,6.62,7.55a.25.25,0,0,1,.05.19c-.3,1.66-.61,3.32-.92,5a.23.23,0,0,1-.15.18l-1.91.65a.24.24,0,0,1-.2,0,.21.21,0,0,1-.11-.16l-.69-4.43q-4.53-3.82-9-7.57l-5.28-.46-3,1.52c-1.59,3.79-3.2,7.62-4.8,11.48a.36.36,0,0,1-.07.1q-3.84,2.93-7.68,5.87a.26.26,0,0,1-.24,0L222.34,270a.24.24,0,0,1-.14-.18c-.29-2.22-.58-4.42-.86-6.62.36-3.16.73-6.25,1.1-9.3a.23.23,0,0,1,.22-.2l10.58-.55c.07-1.94.13-3.88.21-5.79l-4.53-5.27a.25.25,0,0,1-.06-.2.22.22,0,0,1,.12-.16q3.44-1.93,6.84-3.82,2.91-2.94,5.77-5.79a.14.14,0,0,1,.08-.05c1.81-.75,3.61-1.5,5.41-2.23-.17-2.35-.34-4.66-.5-6.91a.23.23,0,0,1,.18-.25l2.09-.46a.23.23,0,0,1,.22.06c2.06,2,4.17,4.07,6.25,6.14,3.67-.35,7.37-.69,11-1-.11-1-.23-2-.34-3.06a.45.45,0,0,1,0-.11l.75-2c-.56-1-1.12-1.95-1.69-2.92a.25.25,0,0,1,0-.26l1.42-1.88.09-1.28-3-1.7a.26.26,0,0,1-.12-.18q-.48-3.57-1-6.92a.37.37,0,0,1,0-.15c1.26-2.19,2.5-4.33,3.68-6.35l-3.89.07c-1.39,2.85-2.88,6-4.43,9.24.28,3.17.56,6.48.83,9.83a.23.23,0,0,1-.07.19q-2.08,2.09-4.22,4.24a.23.23,0,0,1-.27,0c-3.83-1.89-7.72-3.78-11.56-5.61a.23.23,0,0,1-.13-.21q-.08-4.57-.13-8.79a.24.24,0,0,1,.11-.21q2.66-1.59,5.25-3.11c2.54-5.07,4.93-9.62,7.11-13.54a.22.22,0,0,1,.1-.09c3.22-1.56,6.42-3,9.52-4.43a.23.23,0,0,1,.18,0c6,2.29,12.26,4.86,18.54,7.66a.24.24,0,0,1,.14.26q-.22,1.22-.45,2.49a.26.26,0,0,1-.25.2l-3.09-.11-5.25-.76c2.15,2.15,4.37,4.44,6.6,6.84l3.31-.2c.18-1.35.35-2.67.51-3.94a.27.27,0,0,1,.1-.17c3.42-2.44,6.7-4.73,9.76-6.78a.18.18,0,0,1,.1,0l4.19-.56a.24.24,0,0,1,.27.21.23.23,0,0,1-.2.26l-4.14.55c-3,2-6.25,4.28-9.62,6.69-.17,1.3-.34,2.65-.53,4a.24.24,0,0,1-.22.21l-3.61.22a.34.34,0,0,1-.19-.07c-2.43-2.61-4.84-5.11-7.17-7.41a.23.23,0,0,1,0-.27.2.2,0,0,1,.24-.13c2,.27,4,.56,5.93.85l2.87.1c.13-.72.26-1.42.38-2.11-6.18-2.75-12.32-5.29-18.25-7.54-3,1.36-6.2,2.82-9.35,4.35-2.18,3.91-4.56,8.45-7.09,13.51a.32.32,0,0,1-.1.1q-2.56,1.5-5.19,3.08c0,2.72.08,5.56.13,8.5,3.75,1.79,7.54,3.63,11.28,5.48q2-2.05,4-4c-.27-3.34-.55-6.63-.83-9.78a.24.24,0,0,1,0-.12c1.57-3.36,3.1-6.54,4.52-9.44a.23.23,0,0,1,.21-.13l4.46-.08a.45.45,0,0,1,.21.12.25.25,0,0,1,0,.24c-1.24,2.1-2.54,4.34-3.86,6.63.31,2.17.63,4.42.94,6.73l3,1.73a.22.22,0,0,1,.12.22l-.1,1.49a.29.29,0,0,1-.05.13l-1.37,1.81c.56.95,1.11,1.91,1.67,2.89a.27.27,0,0,1,0,.2l-.77,2.06c.12,1.07.24,2.14.36,3.23a.23.23,0,0,1-.05.18.21.21,0,0,1-.16.08c-3.74.33-7.55.69-11.35,1.05a.23.23,0,0,1-.19-.07c-2.07-2.06-4.17-4.12-6.23-6.12l-1.76.39c.16,2.24.32,4.54.49,6.88a.22.22,0,0,1-.15.23l-5.52,2.28c-1.9,1.89-3.82,3.82-5.75,5.77l-.06,0-6.62,3.7,4.41,5.12a.3.3,0,0,1,0,.16c-.07,2-.15,4.06-.21,6.11a.24.24,0,0,1-.23.22l-10.59.55c-.37,3-.73,6-1.08,9,.27,2.09.56,4.25.84,6.42l5.44,2.31,7.52-5.75q2.4-5.81,4.81-11.5a.25.25,0,0,1,.11-.12l3.13-1.59a.15.15,0,0,1,.13,0l5.43.47a.21.21,0,0,1,.13.05q4.56,3.79,9.15,7.67a.28.28,0,0,1,.08.15l.66,4.24,1.51-.51q.45-2.38.87-4.74-3.39-3.9-6.77-7.72a.25.25,0,0,1,0-.22.22.22,0,0,1,.15-.16l2-.71a.26.26,0,0,1,.21,0q3.62,2.49,7.23,5a.18.18,0,0,1,.09.13q1.41,5,2.81,10.07l4,4.31,2.53-3.35c-1.24-1.63-2.49-3.25-3.74-4.88a.21.21,0,0,1,0-.19.27.27,0,0,1,.12-.16l4.55-2.53a.24.24,0,0,1,.22,0,.23.23,0,0,1,.13.17c.35,2.11.69,4.24,1,6.37q3,3.51,5.93,7.06,4,1.46,8,2.93a.25.25,0,0,1,.16.22c0,1.3,0,2.6,0,3.9a.21.21,0,0,1-.17.22l-4,1.14h-7.82l-9.18-3.26-2.21.74V283a.23.23,0,0,1-.39.18c-5.2-4.54-10.44-9.08-15.56-13.51-7.19,1.55-14.52,3.14-21.8,4.73l-3.33,1.45q-2.56,2.57-5.1,5.15l-.81,4.5a.22.22,0,0,1,0,.11c-3.83,5-7.67,10.05-11.42,15,.09,6,.23,11.92.42,17.65,4.8,5.48,9.64,10.9,14.41,16.09,5.61-.93,11.45-1.92,17.34-3a.22.22,0,0,1,.14,0c3.76,1.67,7.53,3.34,11.21,4.94a.24.24,0,0,1,.14.27c-.54,2.48-1.07,4.92-1.6,7.3,1.71,2.36,3.42,4.72,5.1,7a.32.32,0,0,1,0,.09c1,4,1.92,7.87,2.82,11.5a.26.26,0,0,1,0,.19c-1.49,2.27-3,4.51-4.45,6.65,1.1,2.63,2.19,5.15,3.23,7.49,1.67,5,3.14,9.18,4.39,12.34,3.25-.27,6.52-.56,9.72-.87,2.9-1.93,6-4.2,9.07-6.73.84-.88,1.7-1.82,2.55-2.76a.22.22,0,0,1,.13-.08l.37-.07,2-.38c0-1.68,0-3.48,0-5.35a.23.23,0,0,1,.11-.2c3-1.88,6-3.86,8.95-5.9.33-5.23.54-11.14.62-17.59a.28.28,0,0,1,.07-.17c5-4.76,10-9.81,15-15,1.79-4,3.58-8.15,5.33-12.35-3.32.77-6.75,1.56-10.22,2.34a.25.25,0,0,1-.26-.12c-5.41-10.56-11.34-21.72-17.63-33.18a.22.22,0,0,1,.07-.3l2.94-2.12a.15.15,0,0,1,.11,0l2.52-.33a.21.21,0,0,1,.24.12c3.94,7.31,7.78,14.62,11.4,21.71l0,.08c.36,2.83.7,5.6,1,8.22,4.64-2.3,9.2-4.59,13.54-6.82,3-3.67,6-7.39,8.83-11.06-1.64-2.13-3.33-4.3-5-6.46l-5.35,0a.25.25,0,0,1-.16-.06c-3-2.82-6.2-5.77-9.47-8.76a.26.26,0,0,1-.08-.21.24.24,0,0,1,.14-.18l4.72-2.24a.25.25,0,0,1,.26,0c3.13,2.72,6.23,5.44,9.2,8.07l16.78,2.22a.21.21,0,0,1,.16.11c1.82,2.79,3.63,5.6,5.37,8.38l2.64-.78a.22.22,0,0,1,.19,0,.21.21,0,0,1,.11.16c.48,3.06.92,6.09,1.31,9,1.14,4.5,2.22,9.17,3.21,13.84a.24.24,0,0,1-.18.28.23.23,0,0,1-.28-.18c-1-4.67-2.07-9.33-3.22-13.85-.38-2.85-.8-5.79-1.27-8.76l-2.55.75a.24.24,0,0,1-.27-.1c-1.75-2.79-3.56-5.63-5.39-8.43l-16.74-2.22a.21.21,0,0,1-.13-.05c-2.95-2.62-6-5.32-9.14-8l-4.26,2c3.15,2.9,6.23,5.74,9.14,8.47l5.37,0a.22.22,0,0,1,.19.09c1.76,2.24,3.52,4.49,5.21,6.7a.23.23,0,0,1,0,.29c-2.9,3.73-5.92,7.51-9,11.25l-.08.06c-4.45,2.28-9.13,4.64-13.89,7a.24.24,0,0,1-.22,0,.24.24,0,0,1-.12-.18c-.32-2.71-.67-5.57-1.05-8.51-3.59-7-7.39-14.27-11.3-21.52l-2.3.3-2.73,2c6.23,11.33,12.1,22.38,17.46,32.84,3.55-.8,7.08-1.61,10.48-2.41a.22.22,0,0,1,.23.08.21.21,0,0,1,0,.24c-1.81,4.37-3.66,8.69-5.52,12.83l-.05.06c-5,5.19-10,10.23-14.94,15-.08,6.46-.29,12.39-.62,17.62a.24.24,0,0,1-.1.18c-3,2-6,4-8.95,5.91,0,1.9,0,3.72,0,5.42a.23.23,0,0,1-.19.23l-2.24.42-.29.05c-.83.93-1.67,1.85-2.52,2.74-3.17,2.58-6.25,4.86-9.17,6.81l-.11,0c-3.28.31-6.63.61-10,.88Z" style="fill:#fff"></path><path d="M297.83,379a.25.25,0,0,1-.23-.16l-.13-.37L297,377a.23.23,0,0,1,0-.18c1.09-2.56,2.19-5.42,3.27-8.48a.36.36,0,0,1,.08-.12c2.86-2.13,5.75-4.38,8.61-6.68a.24.24,0,0,1,.27,0,.22.22,0,0,1,.11.24c-.29,1.63-.61,3.32-.95,5l0,.07c-2.38,4.38-4.77,8.36-7.12,11.82a.22.22,0,0,1-.18.11l-3.18.2Zm-.4-2.05c.17.46.33.92.49,1.36l.07.21,2.89-.19c2.31-3.42,4.66-7.34,7-11.66.3-1.46.58-2.92.84-4.34-2.69,2.15-5.4,4.26-8.08,6.26C299.59,371.6,298.51,374.42,297.43,377Zm10.68-10.2h0Z" style="fill:#fff"></path></g></svg>